# xmcd CD database file
#
# Track frame offsets:
#	150
#	16885
#	32550
#	48839
#	66541
#	83403
#	97570
#	123080
#	136574
#	150993
#	167919
#	193814
#	218737
#	243689
#
# Disc length: 3613 seconds
#
# Revision: 1
# Processed by: cddbd v1.5.2PL0 Copyright (c) Steve Scherf et al.
# Submitted via: CDex 1.70beta2
#
DISCID=a50e1b0e
DTITLE=Tommie Harris and R&B Caravan (ft. Kai Strauss) - Alabama Hambone
DYEAR=2017
DGENRE=Blues
TTITLE0=Pick up Styx
TTITLE1=Alabama Hambone
TTITLE2=A Time
TTITLE3=It's a Blues World
TTITLE4=Take Your Time
TTITLE5=I Need Your Love
TTITLE6=Good Daddy
TTITLE7=Running Moonshine
TTITLE8=Understanding
TTITLE9=One Scotch, One Bourbon, One Beer
TTITLE10=Security Blues
TTITLE11=Good Bread Alley
TTITLE12=Ain't Nobody's Business If I Do
TTITLE13=Hucklebuck
EXTD=YEAR: 2017
EXTT0=
EXTT1=
EXTT2=
EXTT3=
EXTT4=
EXTT5=
EXTT6=
EXTT7=
EXTT8=
EXTT9=
EXTT10=
EXTT11=
EXTT12=
EXTT13=
PLAYORDER=
